PathFileType	4	(X/Y/Z)	C:\Github\BTS_project\Data\sports2d_results\test6 Exam_2026-03-06_143334_tvc4_Sports2D\test6 Exam_2026-03-06_143334_tvc4_Sports2D_px_person00.trc
DataRate	CameraRate	NumFrames	NumMarkers	Units	OrigDataRate	OrigDataStartFrame	OrigNumFrames
30.0	30.0	15	22	m	30.0	55	220
Frame#	Time	Hip			RHip			RKnee			RAnkle			RBigToe			RSmallToe			RHeel			LHip			LKnee			LAnkle			LBigToe			LSmallToe			LHeel			Neck			Head			Nose			RShoulder			RElbow			RWrist			LShoulder			LElbow			LWrist			
		X1	Y1	Z1	X2	Y2	Z2	X3	Y3	Z3	X4	Y4	Z4	X5	Y5	Z5	X6	Y6	Z6	X7	Y7	Z7	X8	Y8	Z8	X9	Y9	Z9	X10	Y10	Z10	X11	Y11	Z11	X12	Y12	Z12	X13	Y13	Z13	X14	Y14	Z14	X15	Y15	Z15	X16	Y16	Z16	X17	Y17	Z17	X18	Y18	Z18	X19	Y19	Z19	X20	Y20	Z20	X21	Y21	Z21	X22	Y22	Z22
55	1.8417047184170472	26.49682479994177	622.6894939867478	0.0	-273.2163151105246	810.8279991249243	0.0																-477.02088595098917	805.3221514920394	0.0																17.213715053158538	599.8420227255998	0.0	20.04483708171628	553.9906805575539	0.0	2.611095030990076	578.1296880912911	0.0	27.922165524854798	619.9978837616163	0.0	-113.8562205996779	699.5814084609351	0.0				4.377890109600723	617.2118945611688	0.0	-579.8261129591202	668.3522040744624	0.0			
56	1.8751902587519025	26.315016713536643	624.9476529183255	0.0	-265.7440029780071	809.195926864942	0.0																-465.14071112208893	803.8243681987128	0.0																17.365023967801072	599.6397799028612	0.0	20.309673078324955	553.9801158762464	0.0	2.056389901516503	578.7257848356597	0.0	28.384226504022042	619.8152804370127	0.0	-109.96839866373283	698.9841517607372	0.0				4.805969876111205	616.8286677261747	0.0	-565.6261537339954	668.3289751211804	0.0			
57	1.9086757990867578	26.13320862713156	627.2058118499031	0.0	-258.27169084548956	807.5638546049596	0.0																-453.2605362931887	802.3265849053862	0.0																17.516383098445186	599.4374128975768	0.0	20.574590724916295	553.969538780962	0.0	1.501482007443127	579.3221163528261	0.0	28.846287483189286	619.6326771124095	0.0	-106.08057672778774	698.3868950605394	0.0				5.234242310444778	616.4452107461362	0.0	-551.4261945088706	668.3057461678983	0.0			
58	1.9421613394216133	25.951400540726546	629.4639707814806	0.0	-250.79937871297204	805.9317823449771	0.0																-441.3803614642884	800.8288016120594	0.0																17.66774166063585	599.2350472989007	0.0	20.839507446446156	553.9589618265975	0.0	0.9465764106907397	579.9184452102718	0.0	29.308348462356726	619.4500737878035	0.0	-102.19275479184266	697.7896383603414	0.0				5.662512562060954	616.0617563729811	0.0	-537.2262352837458	668.2825172146162	0.0			
59	1.9756468797564688	25.769592454321444	631.7221297130582	0.0	-243.32706658045456	804.2997100849947	0.0																-429.5001866353882	799.3310183187326	0.0																17.818842704877564	599.0333185353601	0.0	21.104005448675668	553.9484485343905	0.0	0.3927106361264783	580.5135701008136	0.0	29.770409441524524	619.2674704631903	0.0	-98.30493285589755	697.1923816601436	0.0				6.089794770407759	615.679482233812	0.0	-523.0262760586211	668.2592882613341	0.0			
60	2.009132420091324	25.587784367915823	633.9802886446357	0.0	-235.85475444793704	802.6676378250123	0.0																-417.62001180648804	797.833235025406	0.0																17.969460685336696	598.8327843716096	0.0	21.367718002274202	553.9380546605377	0.0	-0.15920460321300134	581.1064365463831	0.0	30.232470420692014	619.0848671385781	0.0	-94.41711091995245	696.5951249599457	0.0				6.515223571202538	615.299422022628	0.0	-508.82631683349626	668.2360593080521	0.0			
61	2.0426179604261794	25.405976281509638	636.2384475762135	0.0	-228.38244231541955	801.03556556503	0.0																-405.73983697758786	796.3354517320794	0.0																18.12048217098553	598.6312523420318	0.0	21.632086655048624	553.9275610306132	0.0	-0.7127491603317018	581.701189508879	0.0	30.69453139985707	618.9022638140044	0.0	-90.52928898400738	695.9978682597479	0.0				6.942200554384702	614.9175124859785	0.0	-494.62635760837145	668.2128303547701	0.0			
62	2.076103500761035	25.22416819510505	638.496606507791	0.0	-220.9101301829021	799.4034933050476	0.0																-393.8596621486876	794.8376684387526	0.0																18.27473204923117	598.4217365888243	0.0	21.901704606895038	553.9162692984762	0.0	-1.2793295086848657	582.3110360743567	0.0	31.156592379019138	618.7196604894974	0.0	-86.6414670480623	695.4006115595502	0.0				7.381564201008735	614.5208068722665	0.0	-480.42639838324664	668.1896014014881	0.0			
63	2.1095890410958904	25.042360108706387	640.7547654393672	0.0	-213.43781805038455	797.771421045065	0.0																-381.9794873197874	793.3398851454258	0.0																18.433013648164334	598.2022505497772	0.0	22.177878010935313	553.9039808917448	0.0	-1.8621892654885224	582.9397319065669	0.0	31.61865335818798	618.5370571649206	0.0	-82.75364511211723	694.8033548593523	0.0				7.836396620936705	614.1056235274406	0.0	-466.2264391581219	668.166372448206	0.0			
64	2.1430745814307457	24.860552022310753	643.012924370943	0.0	-205.96550591786706	796.1393487850826	0.0																-370.0993124908871	791.8421018520992	0.0																18.582416687755384	598.0047210227663	0.0	22.439614984021674	553.8938874246217	0.0	-2.4091984563201727	583.5269178784557	0.0	32.08071433738487	618.3544538398717	0.0	-78.86582317617213	694.2060981591545	0.0				8.257163704015284	613.7311317565262	0.0	-452.02647993299706	668.143143494924	0.0			
65	2.176560121765601	24.678743935890544	645.2710833025233	0.0	-198.49319378534958	794.5072765251002	0.0																-358.21913766198685	790.3443185587724	0.0																18.69447547474949	597.8995427065081	0.0	22.640631045076468	553.8930259279399	0.0	-2.80541702023935	583.9395096051346	0.0	32.5427753166001	618.1718505142877	0.0	-74.97800124022703	693.6088414589565	0.0				8.534648884390823	613.5277926538379	0.0	-437.8265207078723	668.119914541642	0.0			
66	2.2100456621004563	24.496935849408526	647.5292422341151	0.0	-191.0208816528321	792.8752042651179	0.0																-346.3389628330866	788.8465352654459	0.0																18.75253250051587	597.927908342215	0.0	22.75384217100521	553.9055139870683	0.0	-2.983586211460234	584.0996307271895	0.0	33.00483629570672	617.9892471901052	0.0	-71.09017930428192	693.0115847587587	0.0				8.604942421211458	613.5719478692953	0.0	-423.62656148274755	668.09668558836	0.0			
67	2.243531202435312	24.315127762935333	649.7874011657054	0.0	-183.54856952031457	791.2431320051354	0.0																-334.45878800418643	787.3487519721192	0.0																18.773244129926866	598.048625452224	0.0	22.806332874355796	553.927233105744	0.0	-3.0109662319190282	584.0851585209583	0.0	33.46689727451469	617.8066438713003	0.0	-67.20235736833683	692.4143280585608	0.0				8.531954806409358	613.7872561064503	0.0	-409.4266022576228	668.0734566350778	0.0			
68	2.2770167427701673	24.133319676794446	652.0455600972341	0.0	-176.07625738779703	789.6110597451529	0.0																-322.57861317528614	785.8509686787925	0.0																18.785075927375196	598.1912993681093	0.0	22.84438769187196	553.951146151508	0.0	-3.0024973055292437	584.0291774758804	0.0	33.92895825331379	617.6240405554857	0.0	-63.31453543239174	691.8170713583629	0.0				8.424902688690445	614.0432563120514	0.0	-395.22664303249803	668.050227681796	0.0			
69	2.3105022831050226	23.9515115912356	654.303719028655	0.0	-168.60394525527957	787.9789874851705	0.0																-310.6984383463859	784.3531853854657	0.0																18.800942292449804	598.3240023435023	0.0	22.888996744456314	553.9740647922505	0.0	-3.0103041606256116	583.9920434180215	0.0	34.391019233621165	617.4414372178519	0.0	-59.42671349644666	691.2198146581651	0.0				8.33331747076415	614.2807779095061	0.0	-381.02668380737316	668.026998728514	0.0			
